<svg width="20" height="20" viewBox="0 0 20 20" fill="none" xmlns="http://www.w3.org/2000/svg">
<path d="M5.33267 5.32625C6.70723 4.43303 8.30001 3.76923 10 3.76923C13.8631 3.76923 17.1723 7.19625 18.6261 8.95647C18.8557 9.2427 18.9828 9.61443 18.9828 10C18.9828 10.3856 18.8557 10.7576 18.6261 11.0439C17.8247 12.0141 16.4596 13.4907 14.7488 14.6207M12.0769 15.912C11.409 16.114 10.714 16.2308 10 16.2308C6.13692 16.2308 2.82772 12.8041 1.37387 11.0439C1.14425 10.7576 1.0169 10.3856 1.0169 10C1.0169 9.61443 1.14425 9.2427 1.37387 8.95647C1.8345 8.39877 2.48126 7.67374 3.27299 6.94343M11.9583 11.9583C13.0397 10.8768 13.0397 9.12318 11.9583 8.04173C10.8768 6.96029 9.12352 6.96029 8.04207 8.04173M19 19L1 1" stroke="#3C3D41"/>
</svg>
