<svg width="24" height="23" viewBox="0 0 24 23" fill="none" xmlns="http://www.w3.org/2000/svg">
<path d="M1 13.7033L12.1429 1.12442L23.2857 13.7033" stroke="#2CAEE2" stroke-linecap="round" stroke-linejoin="round"/>
<path d="M4.42847 9.83286V22.4117H19.857V9.83286" stroke="#2CAEE2" stroke-linecap="round" stroke-linejoin="round"/>
<path d="M11.1331 10.6392C10.7899 10.6392 10.5118 10.9532 10.5118 11.3406V13.3134H8.76418C8.42101 13.3134 8.14282 13.6275 8.14282 14.0149V16.2945C8.14282 16.6819 8.42101 16.9959 8.76418 16.9959H10.5118V18.9687C10.5118 19.356 10.7899 19.6702 11.1331 19.6702H13.1525C13.4957 19.6702 13.7739 19.356 13.7739 18.9687V16.9959H15.5215C15.8646 16.9959 16.1428 16.6819 16.1428 16.2945V14.0149C16.1428 13.6275 15.8646 13.3134 15.5215 13.3134H13.7739V11.3406C13.7739 10.9532 13.4957 10.6392 13.1525 10.6392H11.1331Z" stroke="#2CAEE2" stroke-linecap="round" stroke-linejoin="round"/>
</svg>
