<svg width="265" height="37" viewBox="0 0 265 37" fill="none" xmlns="http://www.w3.org/2000/svg">
<path d="M261.681 13.2572C261.536 13.1339 261.332 12.9922 261.226 12.8339C261.033 12.5449 261.101 12.7013 261.215 12.405C261.323 12.1252 261.468 11.9098 261.531 11.6006C261.695 10.7814 261.796 9.84261 261.728 9.01427C261.65 8.08652 261.381 7.21215 261.065 6.3433C260.785 5.57754 260.529 4.75288 260.075 4.07179C259.218 2.77957 257.827 1.98251 256.42 1.45237C254.495 0.728946 252.465 0.30925 250.427 0.11965C248.33 -0.0736311 246.119 -0.0165671 244.021 0.208007C243.089 0.307409 242.154 0.576162 241.271 0.955361L241.291 2.42246C241.009 2.58813 241.291 2.42246 240.761 2.65255C240.306 2.84952 239.788 3.07409 239.613 3.18454C238.654 3.78647 237.805 4.67556 237.159 5.75794C235.75 8.11597 235.685 10.4169 236.039 13.364C236.22 14.8753 236.745 16.2908 237.644 17.6917C238.006 18.2549 238.408 18.8109 238.798 19.3502C239.286 20.0239 239.79 20.7197 240.234 21.4542C241.003 22.7243 241.941 24.6498 241.198 26.6967C240.702 28.07 239.626 29.2959 238 30.3451C237.809 30.5918 237.87 31.722 238.092 31.9798L238.096 31.9945C239.147 31.9982 240.176 32 241.097 32.0037H241.168C241.171 30.7409 241.177 29.3714 241.18 27.9761C241.312 27.7773 241.431 27.5766 241.533 27.3778C242.361 25.7469 242.159 24.0239 241.393 22.4133C241.332 22.2826 241.267 22.1555 241.2 22.0285C241.2 21.734 241.202 21.4432 241.204 21.1578C241.204 20.8431 241.206 20.5283 241.207 20.2135C243.611 20.2227 246.013 20.2301 248.417 20.2393C249.87 20.2448 251.324 20.2503 252.778 20.254C252.787 17.6585 252.796 15.063 252.803 12.4676C249.256 12.4547 245.708 12.4436 242.161 12.4307C241.852 12.4307 241.543 12.4289 241.235 12.4271C241.244 9.97699 241.251 7.52876 241.26 5.07869C241.263 4.20433 241.265 3.32996 241.269 2.45559C242.455 1.78739 243.622 1.35481 245.087 1.32352C247.107 1.28302 249.166 1.34008 251.176 1.58491C253.005 1.80948 254.968 2.24022 256.648 3.0428C258.026 3.70179 258.952 4.55591 259.501 6.01381C259.812 6.83663 260.142 7.66866 260.307 8.53751C260.462 9.35113 260.373 10.1924 260.26 11.006C260.173 11.6282 259.633 12.1012 259.694 12.7381C259.756 13.4008 260.33 13.907 260.801 14.3028C261.771 15.1146 262.763 15.9485 263.414 17.064C263.467 17.1523 263.51 17.2609 263.566 17.3474C263.577 17.364 263.586 17.4119 263.595 17.4579C263.456 17.4818 263.324 17.5094 263.182 17.5223C262.549 17.5794 262.098 17.1615 261.154 18.2568C260.592 18.9084 260.453 22.0267 260.624 22.671C260.662 23.0262 260.724 23.3833 260.729 23.722C260.747 24.8891 259.866 25.1266 258.893 25.2628C258.425 25.329 257.946 25.4008 257.473 25.3879C257.013 25.3751 256.576 25.2425 256.122 25.1891C255.638 25.1321 255.127 25.1394 254.679 25.3585C253.869 25.7561 253.628 26.636 253.706 27.4919C253.854 29.0971 254.752 30.6047 255.344 32.0018H256.803C256.213 30.4777 255.185 29.0474 255.053 27.3797C254.983 26.4869 255.485 26.4611 256.272 26.6084C257.17 26.7759 257.984 26.7667 258.891 26.647C259.75 26.5347 260.684 26.4188 261.341 25.7782C261.869 25.2646 262.082 24.5596 262.087 23.8288C262.089 23.4422 262.033 23.0612 261.999 22.6765C261.981 22.1427 262.098 19.341 262.111 19.2398C262.174 18.7354 263.405 18.9176 263.792 18.8311C267.098 18.0911 262.685 14.1114 261.683 13.2591L261.681 13.2572ZM263.678 17.4376C263.747 17.4174 263.712 17.4082 263.678 17.4376Z" fill="#2CAEE2"/>
<path d="M237.323 29.2812C238.721 28.3829 239.633 27.3649 240.036 26.2549C240.462 25.0768 240.198 23.7993 239.18 22.1169C238.761 21.4266 238.273 20.751 237.802 20.0994C237.401 19.5472 236.987 18.9747 236.606 18.3819C235.6 16.8154 235.013 15.225 234.807 13.5149C234.423 10.2973 234.504 7.76621 236.099 5.09709C236.846 3.84536 237.838 2.81085 238.963 2.10399C239.217 1.94384 239.705 1.62539 240.272 1.37873C240.724 1.1836 241.054 1.07868 241.271 0.951666C241.271 0.844901 241.271 0.736295 241.271 0.629531C238.724 0.620327 236.178 0.611123 233.632 0.60376C233.619 4.21904 233.608 7.83616 233.596 11.4514C233.596 11.7662 233.594 12.081 233.592 12.3958C231.188 12.3865 228.787 12.3792 226.383 12.37L222.022 12.3553C222.015 14.4648 222.007 16.5725 222 18.682H221.998V20.1472H223.252C226.381 20.1583 229.509 20.1693 232.639 20.1804C232.947 20.1804 233.256 20.1822 233.565 20.1841C233.556 22.6341 233.549 25.0824 233.54 27.5324L233.525 31.9761C234.517 31.9797 235.635 31.9834 236.77 31.9871C236.53 31.0759 236.57 29.7653 237.321 29.283L237.323 29.2812Z" fill="#2CAEE2"/>
<path d="M10.574 30.34C8.738 30.34 6.95867 30.0793 5.236 29.558C3.536 29.0367 2.18733 28.3453 1.19 27.484L2.72 24.05C3.69467 24.8207 4.88467 25.4553 6.29 25.954C7.718 26.43 9.146 26.668 10.574 26.668C12.342 26.668 13.6567 26.3847 14.518 25.818C15.402 25.2513 15.844 24.5033 15.844 23.574C15.844 22.894 15.5947 22.3387 15.096 21.908C14.62 21.4547 14.008 21.1033 13.26 20.854C12.512 20.6047 11.492 20.3213 10.2 20.004C8.38667 19.5733 6.91333 19.1427 5.78 18.712C4.66933 18.2813 3.706 17.6127 2.89 16.706C2.09667 15.7767 1.7 14.53 1.7 12.966C1.7 11.6513 2.05133 10.4613 2.754 9.396C3.47933 8.308 4.556 7.44667 5.984 6.812C7.43467 6.17733 9.20267 5.86 11.288 5.86C12.7387 5.86 14.1667 6.04133 15.572 6.404C16.9773 6.76667 18.19 7.288 19.21 7.968L17.816 11.402C16.7733 10.79 15.6853 10.3253 14.552 10.008C13.4187 9.69067 12.3193 9.532 11.254 9.532C9.50867 9.532 8.20533 9.82666 7.344 10.416C6.50533 11.0053 6.086 11.7873 6.086 12.762C6.086 13.442 6.324 13.9973 6.8 14.428C7.29867 14.8587 7.922 15.1987 8.67 15.448C9.418 15.6973 10.438 15.9807 11.73 16.298C13.498 16.706 14.9487 17.1367 16.082 17.59C17.2153 18.0207 18.1787 18.6893 18.972 19.596C19.788 20.5027 20.196 21.7267 20.196 23.268C20.196 24.5827 19.8333 25.7727 19.108 26.838C18.4053 27.9033 17.3287 28.7533 15.878 29.388C14.4273 30.0227 12.6593 30.34 10.574 30.34ZM35.2548 29.014C34.7561 29.422 34.1441 29.728 33.4188 29.932C32.7161 30.136 31.9681 30.238 31.1748 30.238C29.1801 30.238 27.6388 29.7167 26.5508 28.674C25.4628 27.6313 24.9188 26.1127 24.9188 24.118V15.38H21.9268V11.98H24.9188V7.832H29.1688V11.98H34.0308V15.38H29.1688V24.016C29.1688 24.9 29.3841 25.58 29.8148 26.056C30.2455 26.5093 30.8688 26.736 31.6848 26.736C32.6368 26.736 33.4301 26.4867 34.0648 25.988L35.2548 29.014ZM45.857 11.64C48.5316 11.64 50.5716 12.286 51.977 13.578C53.405 14.8473 54.119 16.774 54.119 19.358V30H50.107V27.79C49.5856 28.5833 48.8376 29.1953 47.863 29.626C46.911 30.034 45.755 30.238 44.395 30.238C43.035 30.238 41.845 30.0113 40.825 29.558C39.805 29.082 39.0116 28.436 38.445 27.62C37.901 26.7813 37.629 25.8407 37.629 24.798C37.629 23.166 38.2296 21.8627 39.431 20.888C40.655 19.8907 42.5703 19.392 45.177 19.392H49.869V19.12C49.869 17.8507 49.4836 16.876 48.713 16.196C47.965 15.516 46.843 15.176 45.347 15.176C44.327 15.176 43.3183 15.3347 42.321 15.652C41.3463 15.9693 40.519 16.4113 39.839 16.978L38.173 13.884C39.125 13.1587 40.2696 12.6033 41.607 12.218C42.9443 11.8327 44.361 11.64 45.857 11.64ZM45.279 27.144C46.3443 27.144 47.285 26.906 48.101 26.43C48.9396 25.9313 49.529 25.2287 49.869 24.322V22.214H45.483C43.035 22.214 41.811 23.0187 41.811 24.628C41.811 25.3987 42.117 26.0107 42.729 26.464C43.341 26.9173 44.191 27.144 45.279 27.144ZM76.4113 11.844L67.9113 31.462C67.1179 33.434 66.1546 34.8167 65.0213 35.61C63.8879 36.426 62.5166 36.834 60.9073 36.834C60.0006 36.834 59.1053 36.6867 58.2213 36.392C57.3373 36.0973 56.6119 35.6893 56.0453 35.168L57.7453 32.04C58.1533 32.4253 58.6293 32.7313 59.1733 32.958C59.7399 33.1847 60.3066 33.298 60.8733 33.298C61.6213 33.298 62.2333 33.1053 62.7093 32.72C63.2079 32.3347 63.6613 31.6887 64.0693 30.782L64.3753 30.068L56.4533 11.844H60.8733L66.5853 25.274L72.3313 11.844H76.4113ZM100.794 6.2V30H96.3735V19.8H84.0655V30H79.6455V6.2H84.0655V16.026H96.3735V6.2H100.794ZM124.001 21.024C124.001 21.3187 123.978 21.738 123.933 22.282H109.687C109.936 23.6193 110.582 24.6847 111.625 25.478C112.69 26.2487 114.005 26.634 115.569 26.634C117.564 26.634 119.207 25.9767 120.499 24.662L122.777 27.28C121.961 28.2547 120.93 28.9913 119.683 29.49C118.436 29.9887 117.031 30.238 115.467 30.238C113.472 30.238 111.716 29.8413 110.197 29.048C108.678 28.2547 107.5 27.1553 106.661 25.75C105.845 24.322 105.437 22.7127 105.437 20.922C105.437 19.154 105.834 17.5673 106.627 16.162C107.443 14.734 108.565 13.6233 109.993 12.83C111.421 12.0367 113.03 11.64 114.821 11.64C116.589 11.64 118.164 12.0367 119.547 12.83C120.952 13.6007 122.04 14.7 122.811 16.128C123.604 17.5333 124.001 19.1653 124.001 21.024ZM114.821 15.04C113.461 15.04 112.305 15.448 111.353 16.264C110.424 17.0573 109.857 18.1227 109.653 19.46H119.955C119.774 18.1453 119.218 17.08 118.289 16.264C117.36 15.448 116.204 15.04 114.821 15.04ZM134.691 11.64C137.366 11.64 139.406 12.286 140.811 13.578C142.239 14.8473 142.953 16.774 142.953 19.358V30H138.941V27.79C138.42 28.5833 137.672 29.1953 136.697 29.626C135.745 30.034 134.589 30.238 133.229 30.238C131.869 30.238 130.679 30.0113 129.659 29.558C128.639 29.082 127.846 28.436 127.279 27.62C126.735 26.7813 126.463 25.8407 126.463 24.798C126.463 23.166 127.064 21.8627 128.265 20.888C129.489 19.8907 131.405 19.392 134.011 19.392H138.703V19.12C138.703 17.8507 138.318 16.876 137.547 16.196C136.799 15.516 135.677 15.176 134.181 15.176C133.161 15.176 132.153 15.3347 131.155 15.652C130.181 15.9693 129.353 16.4113 128.673 16.978L127.007 13.884C127.959 13.1587 129.104 12.6033 130.441 12.218C131.779 11.8327 133.195 11.64 134.691 11.64ZM134.113 27.144C135.179 27.144 136.119 26.906 136.935 26.43C137.774 25.9313 138.363 25.2287 138.703 24.322V22.214H134.317C131.869 22.214 130.645 23.0187 130.645 24.628C130.645 25.3987 130.951 26.0107 131.563 26.464C132.175 26.9173 133.025 27.144 134.113 27.144ZM148.578 4.772H152.828V30H148.578V4.772ZM170.386 29.014C169.888 29.422 169.276 29.728 168.55 29.932C167.848 30.136 167.1 30.238 166.306 30.238C164.312 30.238 162.77 29.7167 161.682 28.674C160.594 27.6313 160.05 26.1127 160.05 24.118V15.38H157.058V11.98H160.05V7.832H164.3V11.98H169.162V15.38H164.3V24.016C164.3 24.9 164.516 25.58 164.946 26.056C165.377 26.5093 166 26.736 166.816 26.736C167.768 26.736 168.562 26.4867 169.196 25.988L170.386 29.014ZM184.354 11.64C186.644 11.64 188.48 12.3087 189.862 13.646C191.245 14.9833 191.936 16.9667 191.936 19.596V30H187.686V20.14C187.686 18.5533 187.312 17.3633 186.564 16.57C185.816 15.754 184.751 15.346 183.368 15.346C181.804 15.346 180.569 15.822 179.662 16.774C178.756 17.7033 178.302 19.052 178.302 20.82V30H174.052V4.772H178.302V13.952C179.005 13.204 179.866 12.6373 180.886 12.252C181.929 11.844 183.085 11.64 184.354 11.64ZM214.166 11.844L205.666 31.462C204.872 33.434 203.909 34.8167 202.776 35.61C201.642 36.426 200.271 36.834 198.662 36.834C197.755 36.834 196.86 36.6867 195.976 36.392C195.092 36.0973 194.366 35.6893 193.8 35.168L195.5 32.04C195.908 32.4253 196.384 32.7313 196.928 32.958C197.494 33.1847 198.061 33.298 198.628 33.298C199.376 33.298 199.988 33.1053 200.464 32.72C200.962 32.3347 201.416 31.6887 201.824 30.782L202.13 30.068L194.208 11.844H198.628L204.34 25.274L210.086 11.844H214.166Z" fill="#3C3D41"/>
</svg>
