<svg width="22" height="22" viewBox="0 0 22 22" fill="none" xmlns="http://www.w3.org/2000/svg">
<path d="M20.1456 5.89284L15.7142 7.85713V5.49999C15.7142 5.08321 15.5487 4.68352 15.254 4.38881C14.9593 4.09412 14.5596 3.92856 14.1428 3.92856H2.35707C1.9403 3.92856 1.54061 4.09412 1.2459 4.38881C0.951206 4.68352 0.785645 5.08321 0.785645 5.49999V16.5C0.785645 16.9167 0.951206 17.3165 1.2459 17.6111C1.54061 17.9058 1.9403 18.0714 2.35707 18.0714H14.1428C14.5596 18.0714 14.9593 17.9058 15.254 17.6111C15.5487 17.3165 15.7142 16.9167 15.7142 16.5V14.1428L20.1456 16.1071C20.2651 16.1532 20.3941 16.1695 20.5212 16.1543C20.6483 16.1392 20.77 16.0933 20.8753 16.0204C20.9805 15.9476 21.0665 15.8502 21.1256 15.7366C21.1847 15.623 21.2152 15.4966 21.2142 15.3686V6.63142C21.2152 6.50336 21.1847 6.37702 21.1256 6.2634C21.0665 6.14979 20.9805 6.05233 20.8753 5.97952C20.77 5.9067 20.6483 5.86076 20.5212 5.84564C20.3941 5.83054 20.2651 5.84674 20.1456 5.89284Z" stroke="#2CAEE2" stroke-linecap="round" stroke-linejoin="round"/>
</svg>
